<mxfile host="app.diagrams.net" agent="Mozilla/5.0 (Macintosh; Intel Mac OS X 10.15; rv:144.0) Gecko/20100101 Firefox/144.0" version="28.2.7">
  <diagram name="Page-1" id="nFaspTpRgzzIqKQH-gMz">
    <mxGraphModel grid="1" page="1" gridSize="10" guides="1" tooltips="1" connect="1" arrows="1" fold="1" pageScale="1" pageWidth="850" pageHeight="1100" math="0" shadow="0">
      <root>
        <mxCell id="0" />
        <mxCell id="1" parent="0" />
        <mxCell id="f0EYMAYpA-BE4oLZQgRJ-3" value="Gameday AWS Account" style="points=[[0,0],[0.25,0],[0.5,0],[0.75,0],[1,0],[1,0.25],[1,0.5],[1,0.75],[1,1],[0.75,1],[0.5,1],[0.25,1],[0,1],[0,0.75],[0,0.5],[0,0.25]];outlineConnect=0;gradientColor=none;html=1;whiteSpace=wrap;fontSize=12;fontStyle=0;container=0;pointerEvents=0;collapsible=0;recursiveResize=0;shape=mxgraph.aws4.group;grIcon=mxgraph.aws4.group_account;strokeColor=#CD2264;fillColor=none;verticalAlign=top;align=left;spacingLeft=30;fontColor=#CD2264;dashed=0;" vertex="1" parent="1">
          <mxGeometry x="30" y="-30" width="730" height="820" as="geometry" />
        </mxCell>
        <mxCell id="f0EYMAYpA-BE4oLZQgRJ-2" value="VPC" style="sketch=0;outlineConnect=0;gradientColor=none;html=1;whiteSpace=wrap;fontSize=12;fontStyle=0;shape=mxgraph.aws4.group;grIcon=mxgraph.aws4.group_vpc;strokeColor=#879196;fillColor=none;verticalAlign=top;align=left;spacingLeft=30;fontColor=#879196;dashed=0;" vertex="1" parent="1">
          <mxGeometry x="60" y="75" width="680" height="695" as="geometry" />
        </mxCell>
        <mxCell id="f0EYMAYpA-BE4oLZQgRJ-4" value="Availability Zone (us-east-1a)" style="rounded=1;arcSize=10;dashed=1;strokeColor=#F59D56;fillColor=none;gradientColor=none;dashPattern=8 4;strokeWidth=2;verticalAlign=top;fontColor=light-dark(#000000, #ededed);" vertex="1" parent="1">
          <mxGeometry x="90" y="100" width="220" height="650" as="geometry" />
        </mxCell>
        <mxCell id="f0EYMAYpA-BE4oLZQgRJ-5" value="Availability Zone (us-east-1b)" style="rounded=1;arcSize=10;dashed=1;strokeColor=#F59D56;fillColor=none;gradientColor=none;dashPattern=8 4;strokeWidth=2;verticalAlign=top;" vertex="1" parent="1">
          <mxGeometry x="500" y="100" width="200" height="640" as="geometry" />
        </mxCell>
        <mxCell id="f0EYMAYpA-BE4oLZQgRJ-9" value="Private subnet" style="points=[[0,0],[0.25,0],[0.5,0],[0.75,0],[1,0],[1,0.25],[1,0.5],[1,0.75],[1,1],[0.75,1],[0.5,1],[0.25,1],[0,1],[0,0.75],[0,0.5],[0,0.25]];outlineConnect=0;gradientColor=none;html=1;whiteSpace=wrap;fontSize=12;fontStyle=0;container=0;pointerEvents=0;collapsible=0;recursiveResize=0;shape=mxgraph.aws4.group;grIcon=mxgraph.aws4.group_security_group;grStroke=0;strokeColor=#00A4A6;fillColor=#E6F6F7;verticalAlign=top;align=left;spacingLeft=30;fontColor=#147EBA;dashed=0;" vertex="1" parent="1">
          <mxGeometry x="120" y="340" width="160" height="160" as="geometry" />
        </mxCell>
        <mxCell id="f0EYMAYpA-BE4oLZQgRJ-6" value="Public subnet" style="points=[[0,0],[0.25,0],[0.5,0],[0.75,0],[1,0],[1,0.25],[1,0.5],[1,0.75],[1,1],[0.75,1],[0.5,1],[0.25,1],[0,1],[0,0.75],[0,0.5],[0,0.25]];outlineConnect=0;gradientColor=none;html=1;whiteSpace=wrap;fontSize=12;fontStyle=0;container=1;pointerEvents=0;collapsible=0;recursiveResize=0;shape=mxgraph.aws4.group;grIcon=mxgraph.aws4.group_security_group;grStroke=0;strokeColor=#7AA116;fillColor=#F2F6E8;verticalAlign=top;align=left;spacingLeft=30;fontColor=#248814;dashed=0;" vertex="1" parent="1">
          <mxGeometry x="120" y="140" width="160" height="160" as="geometry" />
        </mxCell>
        <mxCell id="f0EYMAYpA-BE4oLZQgRJ-8" value="NAT Gateway" style="sketch=0;outlineConnect=0;fontColor=#232F3E;gradientColor=none;fillColor=#8C4FFF;strokeColor=none;dashed=0;verticalLabelPosition=bottom;verticalAlign=bottom;align=center;html=1;fontSize=12;fontStyle=0;aspect=fixed;pointerEvents=1;shape=mxgraph.aws4.nat_gateway;spacing=2;horizontal=1;spacingBottom=18;" vertex="1" parent="1">
          <mxGeometry x="150" y="170" width="50" height="50" as="geometry" />
        </mxCell>
        <mxCell id="f0EYMAYpA-BE4oLZQgRJ-14" value="Public subnet" style="points=[[0,0],[0.25,0],[0.5,0],[0.75,0],[1,0],[1,0.25],[1,0.5],[1,0.75],[1,1],[0.75,1],[0.5,1],[0.25,1],[0,1],[0,0.75],[0,0.5],[0,0.25]];outlineConnect=0;gradientColor=none;html=1;whiteSpace=wrap;fontSize=12;fontStyle=0;container=1;pointerEvents=0;collapsible=0;recursiveResize=0;shape=mxgraph.aws4.group;grIcon=mxgraph.aws4.group_security_group;grStroke=0;strokeColor=#7AA116;fillColor=#F2F6E8;verticalAlign=top;align=left;spacingLeft=30;fontColor=#248814;dashed=0;" vertex="1" parent="1">
          <mxGeometry x="520" y="140" width="160" height="160" as="geometry" />
        </mxCell>
        <mxCell id="f0EYMAYpA-BE4oLZQgRJ-17" value="Private subnet" style="points=[[0,0],[0.25,0],[0.5,0],[0.75,0],[1,0],[1,0.25],[1,0.5],[1,0.75],[1,1],[0.75,1],[0.5,1],[0.25,1],[0,1],[0,0.75],[0,0.5],[0,0.25]];outlineConnect=0;gradientColor=none;html=1;whiteSpace=wrap;fontSize=12;fontStyle=0;container=0;pointerEvents=0;collapsible=0;recursiveResize=0;shape=mxgraph.aws4.group;grIcon=mxgraph.aws4.group_security_group;grStroke=0;strokeColor=#00A4A6;fillColor=#E6F6F7;verticalAlign=top;align=left;spacingLeft=30;fontColor=#147EBA;dashed=0;" vertex="1" parent="1">
          <mxGeometry x="520" y="340" width="160" height="160" as="geometry" />
        </mxCell>
        <mxCell id="f0EYMAYpA-BE4oLZQgRJ-15" value="&lt;div&gt;ECS Cluster&lt;/div&gt;&lt;div&gt;&lt;br&gt;&lt;/div&gt;" style="points=[[0,0],[0.25,0],[0.5,0],[0.75,0],[1,0],[1,0.25],[1,0.5],[1,0.75],[1,1],[0.75,1],[0.5,1],[0.25,1],[0,1],[0,0.75],[0,0.5],[0,0.25]];outlineConnect=0;gradientColor=none;html=1;whiteSpace=wrap;fontSize=12;fontStyle=0;container=1;pointerEvents=0;collapsible=0;recursiveResize=0;shape=mxgraph.aws4.group;grIcon=mxgraph.aws4.group_ec2_instance_contents;strokeColor=#D86613;fillColor=none;verticalAlign=top;align=left;spacingLeft=30;fontColor=#D86613;dashed=1;" vertex="1" parent="1">
          <mxGeometry x="140" y="370" width="520" height="360" as="geometry" />
        </mxCell>
        <mxCell id="f0EYMAYpA-BE4oLZQgRJ-10" value="" style="sketch=0;points=[[0,0,0],[0.25,0,0],[0.5,0,0],[0.75,0,0],[1,0,0],[0,1,0],[0.25,1,0],[0.5,1,0],[0.75,1,0],[1,1,0],[0,0.25,0],[0,0.5,0],[0,0.75,0],[1,0.25,0],[1,0.5,0],[1,0.75,0]];outlineConnect=0;fontColor=#232F3E;fillColor=#ED7100;strokeColor=#ffffff;dashed=0;verticalLabelPosition=bottom;verticalAlign=top;align=center;html=1;fontSize=12;fontStyle=0;aspect=fixed;shape=mxgraph.aws4.resourceIcon;resIcon=mxgraph.aws4.ecs;" vertex="1" parent="f0EYMAYpA-BE4oLZQgRJ-15">
          <mxGeometry width="30" height="30" as="geometry" />
        </mxCell>
        <mxCell id="f0EYMAYpA-BE4oLZQgRJ-37" value="" style="group" connectable="0" vertex="1" parent="f0EYMAYpA-BE4oLZQgRJ-15">
          <mxGeometry x="40" y="160" width="480" height="178" as="geometry" />
        </mxCell>
        <mxCell id="f0EYMAYpA-BE4oLZQgRJ-29" value="Streamlit App" style="sketch=0;points=[[0,0,0],[0.25,0,0],[0.5,0,0],[0.75,0,0],[1,0,0],[0,1,0],[0.25,1,0],[0.5,1,0],[0.75,1,0],[1,1,0],[0,0.25,0],[0,0.5,0],[0,0.75,0],[1,0.25,0],[1,0.5,0],[1,0.75,0]];outlineConnect=0;fontColor=#232F3E;fillColor=#ED7100;strokeColor=#ffffff;dashed=0;verticalLabelPosition=bottom;verticalAlign=top;align=center;html=1;fontSize=12;fontStyle=0;aspect=fixed;shape=mxgraph.aws4.resourceIcon;resIcon=mxgraph.aws4.ecs;" vertex="1" parent="f0EYMAYpA-BE4oLZQgRJ-37">
          <mxGeometry width="68" height="68" as="geometry" />
        </mxCell>
        <mxCell id="f0EYMAYpA-BE4oLZQgRJ-27" value="AWS Cognito" style="sketch=0;points=[[0,0,0],[0.25,0,0],[0.5,0,0],[0.75,0,0],[1,0,0],[0,1,0],[0.25,1,0],[0.5,1,0],[0.75,1,0],[1,1,0],[0,0.25,0],[0,0.5,0],[0,0.75,0],[1,0.25,0],[1,0.5,0],[1,0.75,0]];outlineConnect=0;fontColor=#232F3E;fillColor=#DD344C;strokeColor=#ffffff;dashed=0;verticalLabelPosition=bottom;verticalAlign=top;align=center;html=1;fontSize=12;fontStyle=0;aspect=fixed;shape=mxgraph.aws4.resourceIcon;resIcon=mxgraph.aws4.cognito;" vertex="1" parent="f0EYMAYpA-BE4oLZQgRJ-37">
          <mxGeometry x="206.0006306306306" y="110" width="68" height="68" as="geometry" />
        </mxCell>
        <mxCell id="f0EYMAYpA-BE4oLZQgRJ-33" value="&lt;div&gt;AWS Bedrock&lt;/div&gt;&lt;div&gt;Foundation Model&lt;/div&gt;&lt;div&gt;Claude 3.7&lt;/div&gt;" style="sketch=0;points=[[0,0,0],[0.25,0,0],[0.5,0,0],[0.75,0,0],[1,0,0],[0,1,0],[0.25,1,0],[0.5,1,0],[0.75,1,0],[1,1,0],[0,0.25,0],[0,0.5,0],[0,0.75,0],[1,0.25,0],[1,0.5,0],[1,0.75,0]];outlineConnect=0;fontColor=#232F3E;fillColor=#01A88D;strokeColor=#ffffff;dashed=0;verticalLabelPosition=bottom;verticalAlign=top;align=center;html=1;fontSize=12;fontStyle=0;aspect=fixed;shape=mxgraph.aws4.resourceIcon;resIcon=mxgraph.aws4.bedrock;" vertex="1" parent="f0EYMAYpA-BE4oLZQgRJ-37">
          <mxGeometry x="350.00198198198194" width="68" height="68" as="geometry" />
        </mxCell>
        <mxCell id="f0EYMAYpA-BE4oLZQgRJ-31" style="edgeStyle=orthogonalEdgeStyle;rounded=0;orthogonalLoop=1;jettySize=auto;html=1;" edge="1" parent="f0EYMAYpA-BE4oLZQgRJ-37" source="f0EYMAYpA-BE4oLZQgRJ-29" target="f0EYMAYpA-BE4oLZQgRJ-27">
          <mxGeometry relative="1" as="geometry">
            <Array as="points">
              <mxPoint x="40" y="70" />
              <mxPoint x="280" y="70" />
              <mxPoint x="280" y="144" />
            </Array>
          </mxGeometry>
        </mxCell>
        <mxCell id="f0EYMAYpA-BE4oLZQgRJ-32" value="&lt;div&gt;login&lt;/div&gt;" style="edgeLabel;html=1;align=center;verticalAlign=middle;resizable=0;points=[];" connectable="0" vertex="1" parent="f0EYMAYpA-BE4oLZQgRJ-31">
          <mxGeometry x="-0.1707" y="1" relative="1" as="geometry">
            <mxPoint as="offset" />
          </mxGeometry>
        </mxCell>
        <mxCell id="f0EYMAYpA-BE4oLZQgRJ-35" style="edgeStyle=orthogonalEdgeStyle;rounded=0;orthogonalLoop=1;jettySize=auto;html=1;entryX=0;entryY=0.5;entryDx=0;entryDy=0;entryPerimeter=0;" edge="1" parent="f0EYMAYpA-BE4oLZQgRJ-37" source="f0EYMAYpA-BE4oLZQgRJ-29" target="f0EYMAYpA-BE4oLZQgRJ-33">
          <mxGeometry relative="1" as="geometry" />
        </mxCell>
        <mxCell id="f0EYMAYpA-BE4oLZQgRJ-36" value="&lt;div&gt;Agentic Cycle&lt;/div&gt;" style="edgeLabel;html=1;align=center;verticalAlign=middle;resizable=0;points=[];" connectable="0" vertex="1" parent="f0EYMAYpA-BE4oLZQgRJ-35">
          <mxGeometry x="0.0558" y="-4" relative="1" as="geometry">
            <mxPoint as="offset" />
          </mxGeometry>
        </mxCell>
        <mxCell id="f0EYMAYpA-BE4oLZQgRJ-19" value="" style="group" connectable="0" vertex="1" parent="1">
          <mxGeometry x="350" y="50" width="50" height="50" as="geometry" />
        </mxCell>
        <mxCell id="f0EYMAYpA-BE4oLZQgRJ-18" value="" style="ellipse;whiteSpace=wrap;html=1;strokeColor=none;" vertex="1" parent="f0EYMAYpA-BE4oLZQgRJ-19">
          <mxGeometry width="50" height="50" as="geometry" />
        </mxCell>
        <mxCell id="f0EYMAYpA-BE4oLZQgRJ-16" value="Internet&amp;nbsp;&lt;br&gt;Gateway" style="sketch=0;outlineConnect=0;fontColor=#232F3E;gradientColor=none;fillColor=#8C4FFF;strokeColor=default;dashed=0;verticalLabelPosition=bottom;verticalAlign=top;align=center;html=1;fontSize=12;fontStyle=0;aspect=fixed;pointerEvents=1;shape=mxgraph.aws4.internet_gateway;perimeterSpacing=9;fillStyle=solid;" vertex="1" parent="f0EYMAYpA-BE4oLZQgRJ-19">
          <mxGeometry width="48" height="48" as="geometry" />
        </mxCell>
        <mxCell id="f0EYMAYpA-BE4oLZQgRJ-20" value="AWS Fargate" style="sketch=0;outlineConnect=0;fontColor=#232F3E;gradientColor=none;strokeColor=#ffffff;fillColor=#232F3E;dashed=0;verticalLabelPosition=middle;verticalAlign=bottom;align=center;html=1;whiteSpace=wrap;fontSize=10;fontStyle=1;spacing=3;shape=mxgraph.aws4.productIcon;prIcon=mxgraph.aws4.fargate;" vertex="1" parent="1">
          <mxGeometry x="190" y="400" width="53.33" height="80" as="geometry" />
        </mxCell>
        <mxCell id="f0EYMAYpA-BE4oLZQgRJ-21" value="AWS Fargate" style="sketch=0;outlineConnect=0;fontColor=#232F3E;gradientColor=none;strokeColor=#ffffff;fillColor=#232F3E;dashed=0;verticalLabelPosition=middle;verticalAlign=bottom;align=center;html=1;whiteSpace=wrap;fontSize=10;fontStyle=1;spacing=3;shape=mxgraph.aws4.productIcon;prIcon=mxgraph.aws4.fargate;" vertex="1" parent="1">
          <mxGeometry x="560" y="400" width="53.33" height="80" as="geometry" />
        </mxCell>
        <mxCell id="f0EYMAYpA-BE4oLZQgRJ-24" style="edgeStyle=orthogonalEdgeStyle;rounded=0;orthogonalLoop=1;jettySize=auto;html=1;" edge="1" parent="1" source="f0EYMAYpA-BE4oLZQgRJ-22" target="f0EYMAYpA-BE4oLZQgRJ-23">
          <mxGeometry relative="1" as="geometry">
            <Array as="points">
              <mxPoint x="410" y="15" />
            </Array>
          </mxGeometry>
        </mxCell>
        <mxCell id="f0EYMAYpA-BE4oLZQgRJ-22" value="AWS&amp;nbsp;Cloudfront" style="sketch=0;points=[[0,0,0],[0.25,0,0],[0.5,0,0],[0.75,0,0],[1,0,0],[0,1,0],[0.25,1,0],[0.5,1,0],[0.75,1,0],[1,1,0],[0,0.25,0],[0,0.5,0],[0,0.75,0],[1,0.25,0],[1,0.5,0],[1,0.75,0]];outlineConnect=0;fontColor=#232F3E;fillColor=#8C4FFF;strokeColor=#ffffff;dashed=0;verticalLabelPosition=bottom;verticalAlign=top;align=center;html=1;fontSize=12;fontStyle=0;aspect=fixed;shape=mxgraph.aws4.resourceIcon;resIcon=mxgraph.aws4.cloudfront;" vertex="1" parent="1">
          <mxGeometry x="220" y="-20" width="70" height="70" as="geometry" />
        </mxCell>
        <mxCell id="f0EYMAYpA-BE4oLZQgRJ-25" style="edgeStyle=orthogonalEdgeStyle;rounded=0;orthogonalLoop=1;jettySize=auto;html=1;" edge="1" parent="1" source="f0EYMAYpA-BE4oLZQgRJ-23" target="f0EYMAYpA-BE4oLZQgRJ-20">
          <mxGeometry relative="1" as="geometry" />
        </mxCell>
        <mxCell id="f0EYMAYpA-BE4oLZQgRJ-26" style="edgeStyle=orthogonalEdgeStyle;rounded=0;orthogonalLoop=1;jettySize=auto;html=1;" edge="1" parent="1" source="f0EYMAYpA-BE4oLZQgRJ-23" target="f0EYMAYpA-BE4oLZQgRJ-21">
          <mxGeometry relative="1" as="geometry" />
        </mxCell>
        <mxCell id="f0EYMAYpA-BE4oLZQgRJ-23" value="&lt;div&gt;&lt;br&gt;&lt;/div&gt;&lt;div&gt;&lt;br&gt;&lt;/div&gt;&lt;div&gt;Application Load Balancer&lt;/div&gt;" style="sketch=0;outlineConnect=0;fontColor=#232F3E;gradientColor=none;strokeColor=#ffffff;fillColor=#232F3E;dashed=0;verticalLabelPosition=middle;verticalAlign=bottom;align=center;html=1;whiteSpace=wrap;fontSize=10;fontStyle=1;spacing=3;shape=mxgraph.aws4.productIcon;prIcon=mxgraph.aws4.application_load_balancer;spacingBottom=-17;" vertex="1" parent="1">
          <mxGeometry x="380" y="210" width="58.18" height="80" as="geometry" />
        </mxCell>
      </root>
    </mxGraphModel>
  </diagram>
</mxfile>
